<?xml version="1.0" encoding="UTF-8" standalone="no"?>
<!-- Created with Inkscape (http://www.inkscape.org/) -->

<svg
   width="347.62332mm"
   height="352.74789mm"
   viewBox="0 0 347.62332 352.74789"
   version="1.1"
   id="svg1"
   xml:space="preserve"
   xmlns="http://www.w3.org/2000/svg"
   xmlns:svg="http://www.w3.org/2000/svg"><defs
     id="defs1" /><g
     id="layer1"
     transform="translate(70.190849,27.564607)"><g
       id="g3"><path
         style="fill:#ff641f;fill-opacity:1"
         d="m -1.4383823,325.00028 c -6.01673,-0.34533 -12.8803397,-1.65068 -18.5208297,-3.52237 -5.67403,-1.88282 -10.09601,-3.90617 -15.16945,-6.94102 -17.51722,-10.47852 -29.98901,-28.72997 -33.84021,-49.52243 -1.25458,-6.77344 -1.30652,-12.11007 -1.17,-120.21815 0.14843,-117.540492 -0.0631,-107.179149 2.39438,-117.298617 3.89942,-16.057327 14.20013,-31.2541783 27.83433,-41.064597 10.60779,-7.632771 21.69538,-12.021836 34.4002797,-13.617471 2.6202,-0.329077 215.2149223,-0.54407 216.9729023,-0.219421 0.38805,0.07166 1.4993,0.237021 2.46944,0.367462 21.31276,2.865636 39.68779,14.51937 51.77764,32.8381927 5.56696,8.4351753 9.49223,18.9232473 11.09059,29.6333353 0.59669,3.998213 0.63177,10.287667 0.63177,113.241666 0,87.88918 -0.0896,109.69181 -0.46254,112.53612 -2.31941,17.68993 -10.95767,34.04061 -24.15433,45.71982 -12.10072,10.70929 -26.60211,16.78159 -42.8796,17.95537 -4.32415,0.31182 -206.0307823,0.41879 -211.3743723,0.11211 z"
         id="path2" /><path
         style="fill:#ffffff;fill-opacity:1"
         d="m 87.195358,233.42632 0.0899,-35.71334 20.196532,-0.0911 20.19652,-0.0911 V 179.8977 162.26459 l -20.19652,-0.0911 -20.196532,-0.0911 -0.0934,-10.9073 c -0.10568,-12.34425 0.0773,-13.72583 2.25244,-17.00275 1.28629,-1.93788 3.25848,-3.54958 5.69414,-4.65333 1.18746,-0.53812 3.81725,-0.61533 26.366242,-0.77412 L 146.5519,128.5685 V 111.86192 95.155308 l -26.98749,0.05062 c -27.363402,0.05132 -29.160352,0.127745 -34.094652,1.45004 -15.51255,4.157062 -28.08563,17.110982 -31.83036,32.794512 -1.38367,5.79503 -1.46087,8.82105 -1.45288,56.94746 l 0.008,46.59282 -14.82188,0.092 -14.82187,0.092 v -53.58867 c 0,-34.01702 0.13218,-54.92295 0.3619,-57.24202 1.42273,-14.36233 7.23246,-27.951075 16.46205,-38.50418 10.45411,-11.953212 25.9365,-20.170978 42.04184,-22.315039 3.06857,-0.408511 12.02875,-0.500784 49.175322,-0.506417 l 45.42306,-0.0069 -0.023,61.295146 c -0.024,63.77602 -0.005,62.85419 -1.42311,69.40903 -0.55925,2.58512 -2.40117,8.12605 -3.57674,10.75972 -5.21436,11.68188 -15.0312,21.40174 -26.7477,26.48346 -6.61298,2.86821 -13.35212,4.20275 -21.24011,4.20613 l -4.8507,0.002 v 18.04716 18.04717 l 7.14375,-0.23324 c 6.39805,-0.2089 10.34332,-0.54585 12.96459,-1.10726 0.96735,-0.20718 2.08049,-0.42601 3.70417,-0.72821 3.02198,-0.56245 10.08786,-2.6596 12.43541,-3.69083 0.43657,-0.19178 1.15094,-0.48705 1.5875,-0.65616 2.1485,-0.83226 8.89151,-4.22641 11.55348,-5.81553 10.82695,-6.46338 22.02334,-17.64067 28.67451,-28.6256 2.2322,-3.68666 5.15839,-9.45707 6.08241,-11.99445 0.35329,-0.97014 0.75697,-1.92264 0.89707,-2.11667 0.1401,-0.19402 0.97086,-2.58346 1.84613,-5.30985 1.67483,-5.21693 3.13193,-11.25071 3.78667,-15.68042 0.21509,-1.45521 0.45449,-3.03514 0.532,-3.51095 0.81341,-4.99338 0.90091,-13.93515 0.79934,-81.69238 l -0.10841,-72.326936 -1.19907,-2.435587 c -1.52443,-3.09647 -3.67078,-5.240411 -6.66762,-6.660134 l -2.3639,-1.119847 -53.79861,-0.176388 c -56.933152,-0.186667 -64.467182,-0.07964 -71.803162,1.019966 -22.13655,3.318115 -41.38239,12.968151 -56.87315,28.516706 -15.7582603,15.817063 -25.4534203,35.42931 -28.90979,58.48139 -0.59495,3.96793 -0.63474,8.66765 -0.63474,74.96528 v 70.73194 l 0.91707,1.94028 c 1.8481297,3.91018 5.6001097,6.96076 9.5074797,7.73015 0.86344002,0.17002 21.2144503,0.32348 45.2244703,0.34102 l 43.65457,0.0319 z"
         id="path1" /></g></g></svg>
